<svg width="27" height="31" viewBox="0 0 27 31" fill="none" xmlns="http://www.w3.org/2000/svg">
<path d="M5.55784 0C4.49108 0 4.49108 1.5831 5.55784 1.5831H12.2251V3.18731C5.39783 3.62002 0 9.41417 0 16.4854C0 20.4959 1.74949 24.1159 4.51242 26.5539C4.99246 26.976 5.05647 27.7254 4.61909 28.1897L3.08295 29.7412C2.33621 30.4272 3.44565 31.4931 4.11771 30.7438L6.12323 28.7069C6.47526 28.3692 6.99798 28.2847 7.43535 28.4958C9.16007 29.3397 11.0564 29.784 12.9805 29.795C14.9046 29.8059 16.8059 29.3833 18.5404 28.5591C18.9671 28.348 19.5005 28.4325 19.8418 28.7702L21.7833 30.7438C22.4661 31.377 23.4475 30.4272 22.8288 29.7412L21.378 28.2636C20.9299 27.8098 20.9939 27.0605 21.4846 26.6277C22.9403 25.3585 24.1047 23.7959 24.8996 22.0447C25.6944 20.2936 26.1014 18.3944 26.0931 16.4748C26.0931 9.40361 20.6632 3.59891 13.8253 3.18731V1.5831H20.4926C21.5593 1.5831 21.5593 0 20.4926 0H5.55784ZM1.44013 16.4748C1.44013 9.94187 6.63528 4.65431 13.0465 4.65431C19.4471 4.65431 24.6423 9.94187 24.6423 16.4748C24.6423 23.0183 19.4471 28.3164 13.0465 28.3164C6.64595 28.3164 1.44013 23.0183 1.44013 16.4748ZM12.2358 8.37988C12.2358 7.28226 13.8999 7.28226 13.8999 8.37988V17.013C13.8999 17.237 13.81 17.4517 13.65 17.6101C13.4899 17.7684 13.2729 17.8574 13.0465 17.8574C12.8333 17.8574 12.6287 17.7743 12.477 17.6262C12.3253 17.478 12.2386 17.2767 12.2358 17.0658V8.37988ZM7.24333 10.9973C7.55172 10.9973 7.84748 10.8761 8.06554 10.6603C8.2836 10.4446 8.40611 10.152 8.40611 9.84688C8.40611 9.54178 8.2836 9.24918 8.06554 9.03344C7.84748 8.8177 7.55172 8.6965 7.24333 8.6965C6.95553 8.72386 6.68836 8.85633 6.49394 9.06805C6.29952 9.27977 6.19181 9.55556 6.19181 9.84161C6.19181 10.1277 6.29952 10.4034 6.49394 10.6152C6.68836 10.8269 6.95553 10.9593 7.24333 10.9867V10.9973ZM18.8391 10.9973C19.1475 10.9973 19.4432 10.8761 19.6613 10.6603C19.8793 10.4446 20.0018 10.152 20.0018 9.84688C20.0018 9.54178 19.8793 9.24918 19.6613 9.03344C19.4432 8.8177 19.1475 8.6965 18.8391 8.6965C18.5513 8.72386 18.2841 8.85633 18.0897 9.06805C17.8953 9.27977 17.7875 9.55556 17.7875 9.84161C17.7875 10.1277 17.8953 10.4034 18.0897 10.6152C18.2841 10.8269 18.5513 10.9593 18.8391 10.9867V10.9973ZM8.40611 23.5882C8.40611 25.1185 6.08056 25.1185 6.08056 23.5882C6.08056 22.0579 8.40611 22.0579 8.40611 23.5882ZM13.0465 27.0288C13.2079 27.0441 13.3707 27.0259 13.5245 26.9754C13.6783 26.9248 13.8197 26.843 13.9397 26.7352C14.0596 26.6273 14.1555 26.4959 14.2211 26.3493C14.2867 26.2026 14.3206 26.044 14.3206 25.8837C14.3206 25.7233 14.2867 25.5648 14.2211 25.4181C14.1555 25.2715 14.0596 25.14 13.9397 25.0322C13.8197 24.9244 13.6783 24.8426 13.5245 24.792C13.3707 24.7414 13.2079 24.7232 13.0465 24.7386C12.7587 24.7659 12.4916 24.8984 12.2971 25.1101C12.1027 25.3219 11.995 25.5976 11.995 25.8837C11.995 26.1697 12.1027 26.4455 12.2971 26.6572C12.4916 26.869 12.7587 27.0014 13.0465 27.0288ZM4.92845 16.6437C4.94396 16.8033 4.92557 16.9643 4.87445 17.1165C4.82334 17.2687 4.74064 17.4086 4.63165 17.5273C4.52267 17.646 4.3898 17.7408 4.24159 17.8057C4.09338 17.8706 3.93309 17.9041 3.77101 17.9041C3.60894 17.9041 3.44865 17.8706 3.30044 17.8057C3.15222 17.7408 3.01936 17.646 2.91038 17.5273C2.80139 17.4086 2.71869 17.2687 2.66757 17.1165C2.61646 16.9643 2.59807 16.8033 2.61357 16.6437C2.64124 16.3589 2.77513 16.0946 2.98913 15.9022C3.20313 15.7099 3.48189 15.6033 3.77101 15.6033C4.06014 15.6033 4.3389 15.7099 4.5529 15.9022C4.7669 16.0946 4.90079 16.3589 4.92845 16.6437ZM22.3167 17.794C22.4781 17.8094 22.6408 17.7912 22.7947 17.7406C22.9485 17.6901 23.0899 17.6082 23.2099 17.5004C23.3298 17.3926 23.4257 17.2611 23.4913 17.1145C23.5569 16.9679 23.5907 16.8093 23.5907 16.6489C23.5907 16.4886 23.5569 16.33 23.4913 16.1834C23.4257 16.0367 23.3298 15.9053 23.2099 15.7975C23.0899 15.6896 22.9485 15.6078 22.7947 15.5573C22.6408 15.5067 22.4781 15.4885 22.3167 15.5038C22.0289 15.5312 21.7617 15.6637 21.5673 15.8754C21.3729 16.0871 21.2652 16.3629 21.2652 16.6489C21.2652 16.935 21.3729 17.2108 21.5673 17.4225C21.7617 17.6342 22.0289 17.7667 22.3167 17.794ZM20.0018 23.5987C20.0018 25.1185 17.6763 25.1185 17.6763 23.5882C17.6763 22.0579 20.0018 22.0579 20.0018 23.5882V23.5987Z" fill="white"/>
</svg>
